<svg xmlns="http://www.w3.org/2000/svg" viewBox="0 0 320 320" width="320" height="320"><defs><linearGradient id="17137924568710108105" x1="260.999017445598" x2="-24.963611209470866" y1="-139.96110406110787" y2="440.78690331851124" gradientTransform="matrix(0.003425669,0,0,0.009219848,-0.048107075,-0.894134795)"><stop stop-color="#d5cd1d" /><stop offset="1" stop-color="#ff0000" /><stop offset="1" stop-color="#cd2323" /></linearGradient></defs><g>
<rect fill="#ffffff" x="0" y="0" width="320" height="320"/>
<g>
	<g>
		<path d="M26.117409,140.437283C26.117409,140.437283 14.437702,140.437283 14.437702,140.437283 Q14.200951,138.678446 14.122034,137.139463 Q14.043117,135.60048 14.043117,134.354637 Q14.043117,132.082805 14.279868,130.617107 Q14.358785,129.810973 14.516619,129.078124 Q26.117409,129.078124 26.117409,129.078124 C26.117409,129.078124 26.117409,121.016785 26.117409,121.016785 Q26.117409,116.399836 27.65629,112.039385 Q29.19517,107.678933 32.391306,104.34447 Q35.587442,101.010007 40.480293,98.994672 Q45.373143,96.979338 52.16,96.979338 Q55.474511,96.979338 57.920937,97.272477 Q60.367362,97.565617 62.103535,97.932041 Q64.155375,98.371751 65.57588,98.884745 Q65.418046,100.716867 65.023461,102.69556 Q64.628877,104.381112 63.879166,106.543017 Q63.129455,108.704922 61.866784,110.903469 Q60.68303,110.610329 59.262525,110.317189 Q58.078771,110.097335 56.500432,109.87748 Q54.922093,109.657625 53.343754,109.657625 Q47.977402,109.657625 45.333685,112.405809 Q42.689967,115.153993 42.689967,121.456494 Q42.689967,129.078124 42.689967,129.078124 C42.689967,129.078124 60.446279,129.078124 60.446279,129.078124 Q60.525196,129.371263 60.604113,129.810973 Q60.68303,130.177397 60.761947,130.727034 Q60.840863,131.276671 60.840863,132.00952 Q60.840863,133.475218 60.40682,135.60048 Q59.972777,137.725742 58.552272,140.437283 Q42.689967,140.437283 42.689967,140.437283 C42.689967,140.437283 42.689967,203.975292 42.689967,203.975292 C42.689967,203.975292 26.117409,203.975292 26.117409,203.975292 C26.117409,203.975292 26.117409,140.437283 26.117409,140.437283 C26.117409,140.437283 26.117409,140.437283 26.117409,140.437283 ZM84.989447,116.399836Q82.779773,116.399836 80.846308,115.666987 Q78.912843,114.934138 77.45288,113.688295 Q75.992916,112.442451 75.12483,110.793541 Q74.256743,109.144631 74.256743,107.239224 Q74.256743,105.260531 75.12483,103.574979 Q75.992916,101.889426 77.45288,100.643583 Q78.912843,99.397739 80.846308,98.701533 Q82.779773,98.005326 84.989447,98.005326 Q87.199122,98.005326 89.172045,98.701533 Q91.144969,99.397739 92.604932,100.643583 Q94.064896,101.889426 94.932982,103.574979 Q95.801068,105.260531 95.801068,107.239224 Q95.801068,109.144631 94.932982,110.793541 Q94.064896,112.442451 92.604932,113.688295 Q91.144969,114.934138 89.172045,115.666987 Q87.199122,116.399836 84.989447,116.399836 Q84.989447,116.399836 84.989447,116.399836 ZM75.913999,129.078124C75.913999,129.078124 92.328723,129.078124 92.328723,129.078124 C92.328723,129.078124 92.328723,191.663429 92.328723,191.663429 C92.328723,191.663429 96.984823,194.741395 96.984823,194.741395 C96.984823,194.741395 96.984823,203.975292 96.984823,203.975292 C96.984823,203.975292 92.486557,203.975292 92.486557,203.975292 C92.486557,203.975292 92.328723,203.828722 92.328723,203.828722 C92.328723,203.828722 92.328723,203.975292 92.328723,203.975292 Q84.515946,203.975292 80.214973,201.043896 Q75.913999,198.1125 75.913999,191.370289 Q75.913999,129.078124 75.913999,129.078124 C75.913999,129.078124 75.913999,129.078124 75.913999,129.078124 ZM117.897812,142.489261C117.897812,142.489261 111.663374,136.553184 111.663374,136.553184 C111.663374,136.553184 111.663374,128.27199 111.663374,128.27199 C111.663374,128.27199 126.184091,128.27199 126.184091,128.27199 C126.184091,128.27199 132.970948,133.988212 132.970948,133.988212 C132.970948,133.988212 135.259539,133.548503 135.259539,133.548503 Q135.811958,133.108793 137.82434,132.00952 Q139.836722,130.910246 142.796107,129.810973 Q145.755492,128.711699 149.543505,127.868923 Q153.331518,127.026147 157.514116,127.026147 Q164.143139,127.026147 169.312199,128.858269 Q174.481259,130.690392 178.032521,134.09814 Q181.583783,137.505887 183.398873,142.269406 Q185.213963,147.032924 185.213963,152.969001 Q185.213963,203.975292 185.213963,203.975292 C185.213963,203.975292 168.24682,203.975292 168.24682,203.975292 C168.24682,203.975292 168.24682,154.507984 168.24682,154.507984 Q168.24682,146.51993 164.6561,142.745758 Q161.065379,138.971585 153.252602,138.971585 Q149.385671,138.971585 146.07116,139.594507 Q142.756648,140.217429 140.231306,141.023563 Q137.311379,141.902981 134.786037,143.07554 Q134.786037,203.975292 134.786037,203.975292 C134.786037,203.975292 117.897812,203.975292 117.897812,203.975292 C117.897812,203.975292 117.897812,142.489261 117.897812,142.489261 C117.897812,142.489261 117.897812,142.489261 117.897812,142.489261 ZM202.57569,167.259557Q202.57569,156.706531 205.337783,149.084902 Q208.099876,141.463272 213.071643,136.553184 Q218.04341,131.643095 224.948643,129.334621 Q231.853875,127.026147 240.140154,127.026147 Q247.795097,127.026147 253.832243,129.407906 Q259.869389,131.789665 264.051987,136.113474 Q268.234585,140.437283 270.444259,146.446645 Q272.653933,152.456007 272.653933,159.711212 Q272.653933,162.202899 272.417183,164.328161 Q272.180432,166.453423 271.864764,167.992406 Q271.549096,169.824528 271.154512,171.290226 Q219.384998,171.070372 219.384998,171.070372 Q219.463915,177.592728 220.88442,181.879895 Q222.304925,186.167061 225.106476,188.658748 Q227.908028,191.150434 232.169543,192.139781 Q236.431057,193.129127 242.270911,193.129127 Q247.242678,193.129127 251.188525,192.542848 Q255.134373,191.956568 257.896465,191.150434 Q261.053143,190.271016 263.578485,189.098457 Q264.762239,191.663429 265.433033,193.861976 Q266.103827,196.060523 266.419495,197.672791 Q266.735163,199.578198 266.892997,201.043896 Q264.288738,202.289739 260.579641,203.242443 Q257.422964,204.048577 252.845781,204.744784 Q248.268599,205.44099 242.270911,205.44099 Q232.800878,205.44099 225.422144,203.462298 Q218.04341,201.483605 212.953267,196.976584 Q207.863125,192.469563 205.219407,185.177715 Q202.57569,177.885868 202.57569,167.259557 Q202.57569,167.259557 202.57569,167.259557 ZM255.765708,160.370776C255.765708,160.370776 255.765708,157.87909 255.765708,157.87909 Q255.765708,153.262141 254.542495,149.707823 Q253.319283,146.153506 251.188525,143.735104 Q249.057768,141.316702 246.137841,140.070859 Q243.217914,138.825016 239.824486,138.825016 Q234.852719,138.825016 231.064705,140.034216 Q227.276692,141.243417 224.711892,143.845031 Q222.147091,146.446645 220.88442,150.5506 Q219.621749,154.654554 219.621749,160.370776 Q255.765708,160.370776 255.765708,160.370776 C255.765708,160.370776 255.765708,160.370776 255.765708,160.370776 ZM282.597468,193.861976Q282.597468,191.809999 283.505013,189.977876 Q284.412558,188.145754 285.990896,186.75334 Q287.569235,185.360927 289.699993,184.591436 Q291.83075,183.821944 294.277175,183.821944 Q296.7236,183.821944 298.854358,184.591436 Q300.985115,185.360927 302.563454,186.75334 Q304.141793,188.145754 305.049338,189.977876 Q305.956883,191.809999 305.956883,193.861976 Q305.956883,195.987238 305.049338,197.856003 Q304.141793,199.724768 302.563454,201.080538 Q300.985115,202.436309 298.854358,203.242443 Q296.7236,204.048577 294.277175,204.048577 Q291.83075,204.048577 289.699993,203.242443 Q287.569235,202.436309 285.990896,201.080538 Q284.412558,199.724768 283.505013,197.856003 Q282.597468,195.987238 282.597468,193.861976 Q282.597468,193.861976 282.597468,193.861976 Z" transform="" fill="url('#17137924568710108105')"/>
	</g>
</g></g></svg>