<svg xmlns="http://www.w3.org/2000/svg" viewBox="0 0 1114 280" width="1114" height="280"><defs><linearGradient id="971329271515177411" x1="985.4853837366545" x2="-105.95507211548136" y1="-553.5791273198059" y2="949.4523353286111" gradientTransform="matrix(0.000897542,0,0,0.003562406,-0.038525049,-0.212481242)"><stop stop-color="#d5cd1d" /><stop offset="1" stop-color="#ff0000" /><stop offset="1" stop-color="#cd2323" /></linearGradient></defs><g transform="matrix(1,0,0,1,-42.922848978,-59.645427786)">
<g>
	<g>
		<path d="M74.172273,172.118754C74.172273,172.118754 43.944072,172.118754 43.944072,172.118754 Q43.331338,167.566714 43.127094,163.583679 Q42.922849,159.600643 42.922849,156.376282 Q42.922849,150.496563 43.535583,146.703196 Q43.739827,144.616844 44.148317,142.720161 Q74.172273,142.720161 74.172273,142.720161 C74.172273,142.720161 74.172273,121.856644 74.172273,121.856644 Q74.172273,109.907538 78.155043,98.622272 Q82.137812,87.337006 90.409719,78.707096 Q98.681625,70.077187 111.344791,64.861307 Q124.007956,59.645428 141.572992,59.645428 Q150.151265,59.645428 156.482847,60.404101 Q162.81443,61.162775 167.307811,62.111116 Q172.618171,63.249126 176.294574,64.576805 Q175.886085,69.318513 174.864862,74.439558 Q173.843639,78.80193 171.903315,84.397146 Q169.962991,89.992362 166.695078,95.682413 Q163.631409,94.923739 159.955006,94.165066 Q156.891337,93.596061 152.806445,93.027056 Q148.721553,92.458051 144.636661,92.458051 Q130.748028,92.458051 123.905834,99.570614 Q117.063639,106.683176 117.063639,122.994654 Q117.063639,142.720161 117.063639,142.720161 C117.063639,142.720161 163.018675,142.720161 163.018675,142.720161 Q163.222919,143.478834 163.427164,144.616844 Q163.631409,145.565186 163.835653,146.987699 Q164.039898,148.410211 164.039898,150.306895 Q164.039898,154.100262 162.916552,159.600643 Q161.793207,165.101025 158.116804,172.118754 Q117.063639,172.118754 117.063639,172.118754 C117.063639,172.118754 117.063639,336.561205 117.063639,336.561205 C117.063639,336.561205 74.172273,336.561205 74.172273,336.561205 C74.172273,336.561205 74.172273,172.118754 74.172273,172.118754 C74.172273,172.118754 74.172273,172.118754 74.172273,172.118754 ZM226.538746,109.907538Q220.819897,109.907538 215.815904,108.010855 Q210.811912,106.114171 207.033386,102.889809 Q203.254861,99.665448 201.008171,95.39791 Q198.76148,91.130372 198.76148,86.198996 Q198.76148,81.07795 201.008171,76.715578 Q203.254861,72.353207 207.033386,69.128845 Q210.811912,65.904483 215.815904,64.102634 Q220.819897,62.300785 226.538746,62.300785 Q232.257595,62.300785 237.36371,64.102634 Q242.469825,65.904483 246.24835,69.128845 Q250.026875,72.353207 252.273566,76.715578 Q254.520256,81.07795 254.520256,86.198996 Q254.520256,91.130372 252.273566,95.39791 Q250.026875,99.665448 246.24835,102.889809 Q242.469825,106.114171 237.36371,108.010855 Q232.257595,109.907538 226.538746,109.907538 Q226.538746,109.907538 226.538746,109.907538 ZM203.050617,142.720161C203.050617,142.720161 245.533494,142.720161 245.533494,142.720161 C245.533494,142.720161 245.533494,304.696924 245.533494,304.696924 C245.533494,304.696924 257.583925,312.662994 257.583925,312.662994 C257.583925,312.662994 257.583925,336.561205 257.583925,336.561205 C257.583925,336.561205 245.941983,336.561205 245.941983,336.561205 C245.941983,336.561205 245.533494,336.181869 245.533494,336.181869 C245.533494,336.181869 245.533494,336.561205 245.533494,336.561205 Q225.313278,336.561205 214.181947,328.974472 Q203.050617,321.387738 203.050617,303.938251 Q203.050617,142.720161 203.050617,142.720161 C203.050617,142.720161 203.050617,142.720161 203.050617,142.720161 ZM311.708745,177.429467C311.708745,177.429467 295.573421,162.066332 295.573421,162.066332 C295.573421,162.066332 295.573421,140.633809 295.573421,140.633809 C295.573421,140.633809 333.154428,140.633809 333.154428,140.633809 C333.154428,140.633809 350.719464,155.42794 350.719464,155.42794 C350.719464,155.42794 356.642557,154.28993 356.642557,154.28993 Q358.072269,153.15192 363.280507,150.306895 Q368.488744,147.46187 376.147917,144.616844 Q383.807089,141.771819 393.61083,139.590633 Q403.414571,137.409448 414.239535,137.409448 Q431.396081,137.409448 444.774103,142.151156 Q458.152124,146.892865 467.343131,155.712442 Q476.534138,164.53202 481.231764,176.860462 Q485.92939,189.188905 485.92939,204.55204 Q485.92939,336.561205 485.92939,336.561205 C485.92939,336.561205 442.016801,336.561205 442.016801,336.561205 C442.016801,336.561205 442.016801,208.535075 442.016801,208.535075 Q442.016801,187.861226 432.723671,178.093307 Q423.430542,168.325387 403.210326,168.325387 Q393.202341,168.325387 384.624068,169.937568 Q376.045794,171.549749 369.509967,173.636101 Q361.952917,175.912121 355.41709,178.946814 Q355.41709,336.561205 355.41709,336.561205 C355.41709,336.561205 311.708745,336.561205 311.708745,336.561205 C311.708745,336.561205 311.708745,177.429467 311.708745,177.429467 C311.708745,177.429467 311.708745,177.429467 311.708745,177.429467 ZM530.863202,241.537367Q530.863202,214.225126 538.011763,194.499618 Q545.160324,174.774111 558.027734,162.066332 Q570.895144,149.358553 588.766547,143.384 Q606.63795,137.409448 628.083633,137.409448 Q647.895359,137.409448 663.520071,143.573669 Q679.144783,149.73789 689.969747,160.928322 Q700.794711,172.118754 706.51356,187.671558 Q712.232409,203.224362 712.232409,222.001528 Q712.232409,228.450251 711.619675,233.950633 Q711.006941,239.451015 710.189963,243.43405 Q709.372984,248.175759 708.351761,251.969125 Q574.367302,251.40012 574.367302,251.40012 Q574.571547,268.280603 578.24795,279.376201 Q581.924353,290.471799 589.175036,296.920522 Q596.425719,303.369246 607.454928,305.929768 Q618.484136,308.490291 633.598237,308.490291 Q646.465647,308.490291 656.677877,306.972944 Q666.890107,305.455598 674.038668,303.369246 Q682.208452,301.093226 688.744279,298.058532 Q691.807948,304.696924 693.544028,310.386974 Q695.280107,316.077025 696.097085,320.249728 Q696.914063,325.181105 697.322553,328.974472 Q690.582481,332.198834 680.982985,334.664522 Q672.8132,336.750874 660.967014,338.552723 Q649.120827,340.354572 633.598237,340.354572 Q609.088885,340.354572 589.992015,335.233527 Q570.895144,330.112482 557.721367,318.447879 Q544.547591,306.783276 537.705396,287.911276 Q530.863202,269.039276 530.863202,241.537367 Q530.863202,241.537367 530.863202,241.537367 ZM668.524064,223.708543C668.524064,223.708543 668.524064,217.259819 668.524064,217.259819 Q668.524064,205.310714 665.358273,196.111799 Q662.192481,186.912884 656.677877,180.653829 Q651.163273,174.394774 643.606222,171.170412 Q636.049172,167.94605 627.266654,167.94605 Q614.399244,167.94605 604.595504,171.075578 Q594.791763,174.205106 588.153813,180.938332 Q581.515864,187.671558 578.24795,198.292985 Q574.980036,208.914412 574.980036,223.708543 Q668.524064,223.708543 668.524064,223.708543 C668.524064,223.708543 668.524064,223.708543 668.524064,223.708543 ZM737.967228,310.386974Q737.967228,305.076261 740.316041,300.334552 Q742.664854,295.592844 746.749746,291.989145 Q750.834638,288.385447 756.349243,286.393929 Q761.863847,284.402412 768.195429,284.402412 Q774.527012,284.402412 780.041616,286.393929 Q785.556221,288.385447 789.641113,291.989145 Q793.726005,295.592844 796.074818,300.334552 Q798.423631,305.076261 798.423631,310.386974 Q798.423631,315.887356 796.074818,320.723899 Q793.726005,325.560442 789.641113,329.069306 Q785.556221,332.57817 780.041616,334.664522 Q774.527012,336.750874 768.195429,336.750874 Q761.863847,336.750874 756.349243,334.664522 Q750.834638,332.57817 746.749746,329.069306 Q742.664854,325.560442 740.316041,320.723899 Q737.967228,315.887356 737.967228,310.386974 Q737.967228,310.386974 737.967228,310.386974 ZM845.399889,172.118754C845.399889,172.118754 818.643846,172.118754 818.643846,172.118754 Q818.439601,170.032402 818.235357,167.566714 Q818.031112,165.480362 817.92899,162.635337 Q817.826868,159.790312 817.826868,156.376282 Q817.826868,152.962251 818.031112,150.022392 Q818.235357,147.082533 818.643846,142.720161 Q845.399889,142.720161 845.399889,142.720161 C845.399889,142.720161 845.399889,112.562895 845.399889,112.562895 C845.399889,112.562895 868.888018,87.906011 868.888018,87.906011 C868.888018,87.906011 887.065788,87.906011 887.065788,87.906011 C887.065788,87.906011 887.065788,142.720161 887.065788,142.720161 C887.065788,142.720161 944.86701,142.720161 944.86701,142.720161 Q945.275499,144.616844 945.581866,147.272201 Q945.888233,149.927558 945.888233,152.393246 Q945.888233,156.755618 944.969132,160.359317 Q944.050031,163.963015 943.028808,166.618372 Q941.803341,169.653065 940.169384,172.118754 Q887.065788,172.118754 887.065788,172.118754 C887.065788,172.118754 887.065788,282.126392 887.065788,282.126392 Q887.065788,295.97218 892.06978,302.231236 Q897.073773,308.490291 908.102982,308.490291 Q912.800607,308.490291 918.008845,307.447115 Q923.217082,306.403939 927.914708,304.886592 Q933.225068,303.179577 938.739672,301.093226 Q942.824564,306.024603 945.173377,310.766311 Q947.52219,315.50802 948.543413,319.301386 Q949.76888,323.663758 949.973125,327.457125 Q944.254276,331.060824 937.105715,333.905849 Q930.774132,336.371537 921.991615,338.363055 Q913.209097,340.354572 901.771399,340.354572 Q885.84032,340.354572 875.117478,336.65604 Q864.394637,332.957507 857.756687,325.655276 Q851.118738,318.353045 848.259313,307.447115 Q845.399889,296.541185 845.399889,282.31606 Q845.399889,172.118754 845.399889,172.118754 C845.399889,172.118754 845.399889,172.118754 845.399889,172.118754 ZM1038.206793,237.174995Q1029.832764,226.174231 1021.458736,214.130291 Q1013.084707,202.086352 1004.710678,189.852744 Q996.33665,177.619136 987.962621,165.67003 Q979.588592,153.720925 971.214564,142.720161 Q1017.986577,142.720161 1017.986577,142.720161 C1017.986577,142.720161 1058.427008,203.41403 1058.427008,203.41403 C1058.427008,203.41403 1064.350102,215.173467 1064.350102,215.173467 C1064.350102,215.173467 1070.068951,203.41403 1070.068951,203.41403 Q1080.68967,188.6199 1090.493411,173.067096 Q1100.297152,157.514292 1110.713626,142.720161 Q1157.077151,142.720161 1157.077151,142.720161 C1157.077151,142.720161 1087.429742,240.399357 1087.429742,240.399357 C1087.429742,240.399357 1155.851683,336.561205 1155.851683,336.561205 C1155.851683,336.561205 1109.07967,336.561205 1109.07967,336.561205 C1109.07967,336.561205 1066.392548,273.21198 1066.392548,273.21198 C1066.392548,273.21198 1060.877944,262.021547 1060.877944,262.021547 C1060.877944,262.021547 1055.363339,273.21198 1055.363339,273.21198 C1055.363339,273.21198 1014.10593,336.561205 1014.10593,336.561205 C1014.10593,336.561205 968.150894,336.561205 968.150894,336.561205 C968.150894,336.561205 1038.206793,237.174995 1038.206793,237.174995 C1038.206793,237.174995 1038.206793,237.174995 1038.206793,237.174995 Z" transform="" fill="url('#971329271515177411')"/>
	</g>
</g></g></svg>